HIERARCHY
ROOT hip
{
	OFFSET 0.000000 0.000000 0.000000 
	CHANNELS 6 Xposition Yposition Zposition Xrotation Zrotation Yrotation
	JOINT abdomen
	{
		OFFSET 0.000000 3.402643 0.000000 
		CHANNELS 3 Xrotation Zrotation Yrotation
		JOINT chest
		{
			OFFSET 0.000000 8.438565 -0.680529 
			CHANNELS 3 Xrotation Zrotation Yrotation
			JOINT neck
			{
				OFFSET 0.000000 10.207942 -0.272212 
				CHANNELS 3 Xrotation Zrotation Yrotation
				JOINT head
				{
					OFFSET 0.000000 3.130431 0.000000 
					CHANNELS 3 Xrotation Zrotation Yrotation
					End Site
					{
						OFFSET 0.000000 3.130435 0.000000 
					}
				}
			}
			JOINT lCollar
			{
				OFFSET 3.470700 6.669187 -0.816635 
				CHANNELS 3 Yrotation Zrotation Xrotation
				JOINT lShldr
				{
					OFFSET 3.198488 0.000000 0.000000 
					CHANNELS 3 Zrotation Yrotation Xrotation
					JOINT lForeArm
					{
						OFFSET 10.139888 0.000000 0.000000 
						CHANNELS 3 Yrotation Zrotation Xrotation
						JOINT lHand
						{
							OFFSET 8.370511 0.000000 0.000000 
							CHANNELS 3 Zrotation Yrotation Xrotation
							End Site
							{
								OFFSET 4.083176 0.000000 0.000000 
							}
						}
					}
				}
			}
			JOINT rCollar
			{
				OFFSET -3.470700 6.669187 -0.816635 
				CHANNELS 3 Yrotation Zrotation Xrotation
				JOINT rShldr
				{
					OFFSET -3.198488 0.000000 0.000000 
					CHANNELS 3 Zrotation Yrotation Xrotation
					JOINT rForeArm
					{
						OFFSET -10.139888 0.000000 0.000000 
						CHANNELS 3 Yrotation Zrotation Xrotation
						JOINT rHand
						{
							OFFSET -8.370511 0.000000 0.000000 
							CHANNELS 3 Zrotation Yrotation Xrotation
							End Site
							{
								OFFSET -4.083176 0.000000 0.000000 
							}
						}
					}
				}
			}
		}
	}
	JOINT lThigh
	{
		OFFSET 5.308129 -1.633274 1.361059 
		CHANNELS 3 Xrotation Zrotation Yrotation
		JOINT lShin
		{
			OFFSET -2.041588 -20.007561 0.000000 
			CHANNELS 3 Xrotation Zrotation Yrotation
			JOINT lFoot
			{
				OFFSET 0.000000 -19.190928 -1.224953 
				CHANNELS 3 Xrotation Yrotation Zrotation
				End Site
				{
					OFFSET 0.000000 -2.449906 4.627600 
				}
			}
		}
	}
	JOINT rThigh
	{
		OFFSET -5.308129 -1.633274 1.361059 
		CHANNELS 3 Xrotation Zrotation Yrotation
		JOINT rShin
		{
			OFFSET 2.041588 -20.007561 0.000000 
			CHANNELS 3 Xrotation Zrotation Yrotation
			JOINT rFoot
			{
				OFFSET 0.000000 -19.190928 -1.224953 
				CHANNELS 3 Xrotation Yrotation Zrotation
				End Site
				{
					OFFSET 0.000000 -2.449906 4.627600 
				}
			}
		}
	}
}
MOTION
Frames: 6
Frame Time: 0.033333
0.081923 37.364265 0.081923 -0.010809 -0.017476 -26.523439 1.386719 0.000000 -0.019531 24.172586 7.136109 -20.181704 -8.544920 -0.009766 -0.009767 19.799641 16.861872 47.851227 1.992188 -2.001953 0.000341 -7.165205 -51.153564 -30.520325 -46.276134 -0.600172 8.546262 -37.514858 -54.129982 -161.624969 -2.001953 1.992188 0.000000 -30.572348 136.115372 -90.370193 54.418850 0.540857 8.619150 13.213438 -54.096046 -39.783375 -27.534840 22.006115 15.184366 23.219761 -1.459759 -2.031364 8.021723 -6.667340 -10.476466 7.651267 -17.092310 -13.623644 22.968431 1.408980 2.008839 -22.238712 -16.180000 16.773518 
0.081923 37.330715 0.081923 -0.010809 -0.017476 -26.523439 1.386719 0.000000 -0.019531 24.172586 7.136109 -20.181704 -8.544920 -0.009766 -0.009767 19.799641 16.861872 47.851227 1.992188 -2.001953 0.000341 -7.165205 -51.153564 -30.520325 -46.276134 -0.600172 8.546262 -37.514858 -54.129982 -161.624969 -2.001953 1.992188 0.000000 -30.572348 136.115372 -90.370193 54.418850 0.540857 8.619150 13.213438 -54.096046 -39.783375 -27.534840 22.006115 15.184366 23.219761 -1.459759 -2.031364 8.021724 -6.667340 -10.476466 7.651267 -17.092310 -13.623644 22.968431 1.408981 2.008839 -22.238712 -16.180000 16.773518 
0.081923 37.297165 0.081923 -0.010809 -0.017476 -26.523439 1.386719 0.000000 -0.019531 24.172586 7.136109 -20.181704 -8.544920 -0.009766 -0.009767 19.799641 16.861872 47.851227 1.992188 -2.001953 0.000341 -7.165205 -51.153564 -30.520325 -46.276134 -0.600172 8.546262 -37.514858 -54.129982 -161.624969 -2.001953 1.992188 0.000000 -30.572348 136.115372 -90.370193 54.418850 0.540857 8.619150 13.213438 -54.096046 -39.783375 -27.534840 22.006115 15.184366 23.219761 -1.459758 -2.031364 8.021723 -6.667341 -10.476465 7.651268 -17.092308 -13.623643 22.968431 1.408980 2.008839 -22.238712 -16.180000 16.773518 
0.081923 37.263615 0.081923 -0.010809 -0.017476 -26.523439 1.386719 0.000000 -0.019531 24.172586 7.136109 -20.181704 -8.544920 -0.009766 -0.009767 19.799641 16.861872 47.851227 1.992188 -2.001953 0.000341 -7.165205 -51.153564 -30.520325 -46.276134 -0.600172 8.546262 -37.514858 -54.129982 -161.624969 -2.001953 1.992188 0.000000 -30.572348 136.115372 -90.370193 54.418850 0.540857 8.619150 13.213438 -54.096046 -39.783375 -27.534840 22.006115 15.184366 23.219761 -1.459757 -2.031364 8.021723 -6.667340 -10.476466 7.651268 -17.092308 -13.623643 22.968431 1.408978 2.008839 -22.238712 -16.180000 16.773518 
0.081923 37.230061 0.081923 -0.010809 -0.017476 -26.523439 1.386719 0.000000 -0.019531 24.172586 7.136109 -20.181704 -8.544920 -0.009766 -0.009767 19.799641 16.861872 47.851227 1.992188 -2.001953 0.000341 -7.165205 -51.153564 -30.520325 -46.276134 -0.600172 8.546262 -37.514858 -54.129982 -161.624969 -2.001953 1.992188 0.000000 -30.572348 136.115372 -90.370193 54.418850 0.540857 8.619150 13.213438 -54.096046 -39.783375 -27.534840 22.006115 15.184366 23.219761 -1.459759 -2.031364 8.021723 -6.667341 -10.476465 7.651268 -17.092308 -13.623643 22.968431 1.408979 2.008839 -22.238712 -16.180000 16.773518 
0.081923 37.196507 0.081923 -0.010803 -0.017473 -26.542971 1.386719 0.000000 -0.019531 24.196558 7.161815 -20.222853 -8.544920 -0.009766 -0.009767 19.925962 16.695000 47.806553 1.992188 -2.001953 0.000341 -7.448941 -50.961983 -30.324913 -46.205009 -0.604985 8.543268 -37.973812 -53.789852 -160.852066 -2.001953 1.992188 0.000000 -30.718527 136.106293 -90.369896 54.581650 0.542236 8.626506 13.283235 -54.104122 -39.679371 -27.984320 22.182289 15.167118 23.874578 -1.446087 -2.092267 7.848188 -6.659846 -10.419327 7.333311 -17.235516 -13.475308 23.654753 1.392900 2.012403 -22.261251 -16.209652 16.958193 
